<svg xmlns="http://www.w3.org/2000/svg" viewBox="0 0 38 38"><defs><style>.cls-1{fill:#89b152;fill-rule:evenodd;}</style></defs><title>svg-1</title><g id="图层_2" data-name="图层 2"><g id="图层_1-2" data-name="图层 1"><path class="cls-1" d="M25.91,13.82a6.9,6.9,0,1,1-2-4.89,6.91,6.91,0,0,1,2,4.89Zm-3.46,0a3.45,3.45,0,1,1-6.9,0,3.45,3.45,0,1,1,6.9,0Z"/><path class="cls-1" d="M19,0A19,19,0,1,0,38,19,19,19,0,0,0,19,0ZM3.45,19a15.51,15.51,0,0,0,3.3,9.57,15.53,15.53,0,0,1,24.61-.14,15.58,15.58,0,0,0,2.51-14A15.52,15.52,0,0,0,16.7,3.63,15.43,15.43,0,0,0,9.94,6.37,15.55,15.55,0,0,0,3.45,19ZM19,34.55a15.54,15.54,0,0,1-9.8-3.48,12,12,0,0,1,9.91-5.16,12.06,12.06,0,0,1,9.83,5A15.51,15.51,0,0,1,19,34.55Z"/></g></g></svg>