<svg xmlns="http://www.w3.org/2000/svg" viewBox="0 0 38 38"><defs><style>.cls-1{fill:#89b152;}</style></defs><title>svg-3</title><g id="图层_2" data-name="图层 2"><g id="图层_1-2" data-name="图层 1"><path class="cls-1" d="M20.9,11.4a5.7,5.7,0,0,1,5.7,5.7,1.9,1.9,0,0,0,3.8,0,9.49,9.49,0,0,0-9.5-9.5,1.9,1.9,0,0,0,0,3.8Z"/><path class="cls-1" d="M20.9,3.8A13.32,13.32,0,0,1,34.2,17.1a1.9,1.9,0,0,0,3.8,0A17.11,17.11,0,0,0,20.9,0a1.88,1.88,0,0,0-1.34.56,1.88,1.88,0,0,0,0,2.68,1.88,1.88,0,0,0,1.34.56ZM37.53,26.43a2,2,0,0,0-.53-.8,2.06,2.06,0,0,0-.84-.44l-11.4-2.6a1.87,1.87,0,0,0-.94,0,1.82,1.82,0,0,0-.81.46c-.27.25-.29.27-1.52,2.63a18.84,18.84,0,0,1-9.25-9.29c2.41-1.22,2.43-1.22,2.67-1.51a1.7,1.7,0,0,0,.47-.81,1.83,1.83,0,0,0,0-.93L12.81,1.9a2.06,2.06,0,0,0-.44-.84,2,2,0,0,0-.8-.53A7,7,0,0,0,10.2.19,8,8,0,0,0,8.74,0,8.74,8.74,0,0,0,0,8.74,29.29,29.29,0,0,0,29.26,38a8.7,8.7,0,0,0,3.34-.67,8.66,8.66,0,0,0,4.73-4.73A8.7,8.7,0,0,0,38,29.26a9.87,9.87,0,0,0-.11-1.44,8.1,8.1,0,0,0-.36-1.39ZM29.26,34.2A25.47,25.47,0,0,1,3.8,8.74,5,5,0,0,1,8.74,3.8h.63l2,8.82-1,.53c-1.63.85-2.92,1.54-2.24,3a22.54,22.54,0,0,0,13.64,13.7c1.6.64,2.23-.55,3.08-2.21l.55-1,8.8,2v.63a5,5,0,0,1-4.94,4.94Z"/></g></g></svg>