<svg xmlns="http://www.w3.org/2000/svg" viewBox="0 0 38 37.95"><defs><style>.cls-1{fill:#89b152;}</style></defs><title>svg-2</title><g id="图层_2" data-name="图层 2"><g id="图层_1-2" data-name="图层 1"><path class="cls-1" d="M28.12,23.28c0,1.66.48,2.32,1.71,2.32,2.76,0,4.52-3.51,4.52-9.35C34.35,7.32,27.84,3,19.71,3c-8.35,0-16,5.61-16,16.2,0,10.12,6.65,15.63,16.87,15.63A26.1,26.1,0,0,0,30,33.3l.77,3.18A33.94,33.94,0,0,1,20.57,38C7.17,38,0,30.59,0,19.24S8.31,0,19.76,0C31.68,0,38,7.12,38,15.86c0,7.41-2.33,13.07-9.64,13.07-3.33,0-5.51-1.33-5.8-4.28-.85,3.28-3.13,4.28-6.22,4.28-4.13,0-7.6-3.19-7.6-9.6s3-10.45,8.5-10.45c2.9,0,4.71,1.14,5.51,2.95l1.38-2.52h4v14ZM22.28,17a3.5,3.5,0,0,0-3.56-3.71C17,13.3,15,14.73,15,18.91c0,3.32,1.47,5.17,3.7,5.17a3.47,3.47,0,0,0,3.56-3.75Z"/></g></g></svg>