<svg xmlns="http://www.w3.org/2000/svg" viewBox="0 0 32 32"><defs><style>.cls-1{fill:#3c5128;}</style></defs><title>svg-8</title><g id="图层_2" data-name="图层 2"><g id="图层_1-2" data-name="图层 1"><path class="cls-1" d="M16,0A16,16,0,1,0,27.31,4.69,16,16,0,0,0,16,0Zm8,22.1a1.41,1.41,0,0,1-2,2l-6-6-6,6a1.44,1.44,0,0,1-.46.31,1.51,1.51,0,0,1-1.08,0,1.45,1.45,0,0,1-.77-.77,1.51,1.51,0,0,1,0-1.08A1.44,1.44,0,0,1,8,22.12l6-6L7.83,9.86a1.41,1.41,0,0,1,2-2L16,14.1l6.17-6.17a1.44,1.44,0,0,1,.46-.31,1.51,1.51,0,0,1,1.08,0,1.45,1.45,0,0,1,.77.77,1.51,1.51,0,0,1,0,1.08,1.44,1.44,0,0,1-.31.46L18,16.08Z"/></g></g></svg>