<svg xmlns="http://www.w3.org/2000/svg" viewBox="0 0 57 57"><defs><style>.cls-1{fill:#89b152;}.cls-2{fill:#fff;}</style></defs><title>svg-6</title><g id="图层_2" data-name="图层 2"><g id="图层_1-2" data-name="图层 1"><circle class="cls-1" cx="28.5" cy="28.5" r="28.5"/><path class="cls-2" d="M42.18,12.42a1.39,1.39,0,0,0,.82-.56,1.31,1.31,0,0,0,.21-1,1.33,1.33,0,0,0-.53-.85,1.35,1.35,0,0,0-1-.25l-11.37,2a1.33,1.33,0,0,0-1.08,1l-.51,2.29H15.18a1.38,1.38,0,0,0-.95.4,1.33,1.33,0,0,0-.39.94v8a5.34,5.34,0,0,0,5.36,5.35,8,8,0,0,0,6.69,7.92v6.8H20.53a1.33,1.33,0,0,0-.94.39,1.37,1.37,0,0,0-.39,1,1.33,1.33,0,0,0,1.33,1.34H33.91a1.33,1.33,0,0,0,1.34-1.34,1.37,1.37,0,0,0-.39-1,1.34,1.34,0,0,0-1-.39H28.56v-6.8a8,8,0,0,0,6.69-7.92,5.33,5.33,0,0,0,5.35-5.35v-8a1.35,1.35,0,0,0-1.33-1.34H31.49l.19-.84,10.5-1.85Zm-14,5.37-.6,2.68h-11V17.79ZM16.52,23.14H27l-1.72,7.74a1.35,1.35,0,0,0,.19,1,1.37,1.37,0,0,0,.83.58,1.36,1.36,0,0,0,1-.18,1.3,1.3,0,0,0,.59-.82l1.85-8.32h8.22v1.34a2.7,2.7,0,0,1-2.68,2.68H33.91a1.33,1.33,0,0,0-1.33,1.34v1.33a5.36,5.36,0,1,1-10.71,0V28.5a1.33,1.33,0,0,0-1.34-1.34H19.2a2.68,2.68,0,0,1-2.68-2.68Zm21.41-2.67H30.3l.6-2.68h7Z"/></g></g></svg>