<svg xmlns="http://www.w3.org/2000/svg" viewBox="0 0 57 57"><defs><style>.cls-1{fill:#89b152;}.cls-2{fill:#fff;}</style></defs><title>svg-7</title><g id="图层_2" data-name="图层 2"><g id="图层_1-2" data-name="图层 1"><circle class="cls-1" cx="28.5" cy="28.5" r="28.5"/><path class="cls-2" d="M21.69,14.66A8.63,8.63,0,0,0,13,23.21v.35L11.4,25.7a5.1,5.1,0,0,0,1.62.8V30a4.19,4.19,0,0,0,0,6.32v4a2.89,2.89,0,0,0,2.89,2.85h26a2.89,2.89,0,0,0,2.89-2.85v-4a4.19,4.19,0,0,0,0-6.32V26.5a5.1,5.1,0,0,0,1.62-.8l-1.62-2.18v-.31a8.63,8.63,0,0,0-8.66-8.55Zm0,2.85h1.44a1.45,1.45,0,0,0,2.89,0H36.13a5.72,5.72,0,0,1,5.77,5.7v.71a3.1,3.1,0,0,1-1-.53l-.76-.54-.86.49L38.16,24a3.16,3.16,0,0,1-3.25,0l-1.08-.62-.68-.4-.72.31-2.08,1.07a3.22,3.22,0,0,1-2.84,0l-2.12-1.07-.72-.31-.68.4L22.91,24a3.16,3.16,0,0,1-3.25,0l-1.09-.62-.85-.49-.77.54a3.1,3.1,0,0,1-1,.53v-.71A5.72,5.72,0,0,1,21.69,17.51Zm0,1.42a1.43,1.43,0,1,0,1.44,1.43A1.44,1.44,0,0,0,21.69,18.93Zm5.77,0a1.43,1.43,0,1,0,1.45,1.43A1.44,1.44,0,0,0,27.46,18.93Zm-9.88,7.13.59.35a6.07,6.07,0,0,0,3.11.86,6.13,6.13,0,0,0,3.12-.86l.4-.26,1.4.71c1.7.84,1,11.44,2.71,10.6L33,26.15l.41.26a6.07,6.07,0,0,0,6.23,0l.58-.35a7.72,7.72,0,0,0,1.67.53v2.32h-26V26.59A7.39,7.39,0,0,0,17.58,26.06Zm-1.67,5.7h26a1.43,1.43,0,1,1,0,2.85h-26a1.43,1.43,0,1,1,0-2.85Zm0,5.7h26v2.85h-26Z"/></g></g></svg>