<svg xmlns="http://www.w3.org/2000/svg" viewBox="0 0 57 57"><defs><style>.cls-1{fill:#89b152;}.cls-2{fill:none;stroke:#fff;stroke-linecap:round;stroke-linejoin:round;stroke-width:4px;}</style></defs><title>svg-5</title><g id="图层_2" data-name="图层 2"><g id="图层_1-2" data-name="图层 1"><circle class="cls-1" cx="28.5" cy="28.5" r="28.5"/><path class="cls-2" d="M19.89,27.51l7.62-7.62a3.59,3.59,0,0,1,5.07,0L37.66,25a3.6,3.6,0,0,1,0,5.08L30,37.66a3.59,3.59,0,0,1-5.07,0l-5.08-5.08a3.6,3.6,0,0,1,0-5.08Z"/><path class="cls-2" d="M36.39,23.7l5.54-1.39a2.67,2.67,0,0,0,1.23-.68,2.62,2.62,0,0,0,.71-1.21,2.66,2.66,0,0,0,0-1.4,2.58,2.58,0,0,0-.7-1.22l-4-4a2.8,2.8,0,0,0-1.12-.67,2.61,2.61,0,0,0-1.3-.07,2.71,2.71,0,0,0-1.18.54,2.75,2.75,0,0,0-.78,1l-2.25,5.23"/><path class="cls-2" d="M23.7,36.39l-1.39,5.54a2.67,2.67,0,0,1-.68,1.23,2.62,2.62,0,0,1-1.21.71,2.66,2.66,0,0,1-1.4,0,2.58,2.58,0,0,1-1.22-.7l-4-4a2.7,2.7,0,0,1-.67-1.11,2.61,2.61,0,0,1-.07-1.3,2.71,2.71,0,0,1,.54-1.18,2.88,2.88,0,0,1,1-.79l5.23-2.24"/></g></g></svg>