<svg xmlns="http://www.w3.org/2000/svg" viewBox="0 0 38 33.26"><defs><style>.cls-1{fill:#89b152;}</style></defs><title>svg-4</title><g id="图层_2" data-name="图层 2"><g id="图层_1-2" data-name="图层 1"><path class="cls-1" d="M24.15,22.17a3.57,3.57,0,0,1,3.56,3.56v2.55c-.5,3.37-3.52,5-8.59,5s-8.13-1.59-8.8-4.92l0-.24V25.73a3.57,3.57,0,0,1,3.56-3.56Zm0,2.37H13.85a1.22,1.22,0,0,0-.84.35,1.18,1.18,0,0,0-.34.84V28c.44,1.9,2.45,2.91,6.44,2.91s5.9-1,6.22-2.88V25.73a1.18,1.18,0,0,0-.34-.84A1.22,1.22,0,0,0,24.15,24.54Zm1.57-11.87h8.72A3.55,3.55,0,0,1,38,16.23v2.55c-.49,3.37-3.52,5-8.59,5h-.5a5.15,5.15,0,0,0-2.41-2.61,15.39,15.39,0,0,0,2.91.24c4,0,5.9-1,6.22-2.88V16.23a1.18,1.18,0,0,0-.34-.84,1.22,1.22,0,0,0-.84-.35H26.12a7.15,7.15,0,0,0-.4-2.37Zm-22.16,0h8.72a6.89,6.89,0,0,0-.39,2V15H3.56a1.22,1.22,0,0,0-.84.35,1.18,1.18,0,0,0-.34.84v2.25c.44,1.9,2.45,2.91,6.43,2.91a16.34,16.34,0,0,0,2.59-.18,5.11,5.11,0,0,0-2.3,2.55H8.81C3.76,23.76.69,22.17,0,18.84l0-.24V16.23a3.55,3.55,0,0,1,3.56-3.56ZM19,9.5a5.53,5.53,0,1,1-3.92,1.62A5.54,5.54,0,0,1,19,9.5Zm0,2.38a3.16,3.16,0,1,0,2.24.92A3.17,3.17,0,0,0,19,11.88ZM29.29,0a5.53,5.53,0,1,1-3.92,1.62A5.54,5.54,0,0,1,29.29,0ZM8.71,0A5.53,5.53,0,1,1,4.79,1.62,5.54,5.54,0,0,1,8.71,0ZM29.29,2.38a3.16,3.16,0,0,0-2.24,5.4,3.17,3.17,0,1,0,2.24-5.4Zm-20.58,0A3.16,3.16,0,1,0,11,3.3a3.17,3.17,0,0,0-2.24-.92Z"/></g></g></svg>